<?xml version="1.0" encoding="iso-8859-1"?>
<!-- Uploaded to: SVG Repo, www.svgrepo.com, Generator: SVG Repo Mixer Tools -->
<svg stroke="#253d22" fill="#547a4d" version="1.1" id="Layer_1" xmlns="http://www.w3.org/2000/svg" xmlns:xlink="http://www.w3.org/1999/xlink" 
	 viewBox="0 0 475 475" xml:space="preserve">
<g>
	<g>
		<g>
			<path d="M371.078,365.107c-0.003-0.002-0.007-0.003-0.01-0.005c-0.045-0.023-0.088-0.046-0.133-0.069
				c-10.499-5.409-22.443-10.276-35.512-14.472c-0.768-0.409-2.272-1.216-4.304-2.33c-0.005-0.003-0.01-0.006-0.016-0.009
				c-0.016-0.009-0.031-0.018-0.047-0.026c-16.637-9.171-29.752-17.839-36.056-23.768V300h27.5c20.678,0,37.5-16.822,37.5-37.5V185
				h30v-65h-30V30h-85V0h-75v30h-85v90H85v65h30v77.5c0,20.678,16.822,37.5,37.5,37.5H180v24.428
				c-6.305,5.93-19.423,14.599-36.053,23.766c-0.018,0.01-0.036,0.02-0.055,0.03c-2.059,1.129-3.576,1.942-4.336,2.347
				c-13.408,4.401-25.361,9.34-35.486,14.658c-0.04,0.02-0.077,0.041-0.117,0.061c-0.014,0.008-0.028,0.015-0.042,0.022
				c-62.412,32.173-63.877,75.236-63.909,77.055L40,475h395v-32.537C434.991,440.628,434.05,397.186,371.078,365.107z M360,135h15
				v35h-15V135z M115,170h-15v-35h15V170z M335,366.218c9.01,3.057,17.379,6.448,25,10.127V420h-25V366.218z M215,15h45v15h-45V15z
				 M152.5,285c-12.406,0-22.5-10.093-22.5-22.5V45h215v217.5c0,12.407-10.094,22.5-22.5,22.5H152.5z M280,300v24.611
				C274.87,329.974,258.614,345,237.5,345c-20.977,0-37.346-15.055-42.5-20.404V300H280z M155,359.203
				c9.754-5.509,23.203-13.621,32.24-21.169c8.645,8.14,26.783,21.966,50.26,21.966s41.615-13.826,50.26-21.966
				c9.035,7.546,22.479,15.656,32.24,21.169V420H155V359.203z M115,376.509c7.427-3.641,15.799-7.078,25-10.258V420h-25V376.509z
				 M85.2,460H55v-17.37c0.092-2.065,2.189-31.708,45-57.922V420.2c-8.466,1.22-15,8.502-15,17.3v20
				C85,458.351,85.082,459.181,85.2,460z M375,457.5c0,1.355-1.145,2.5-2.5,2.5h-270c-1.355,0-2.5-1.145-2.5-2.5v-20
				c0-1.355,1.145-2.5,2.5-2.5h270c1.355,0,2.5,1.145,2.5,2.5V457.5z M420,460h-30.2c0.118-0.819,0.2-1.649,0.2-2.5v-20
				c0-8.798-6.534-16.081-15-17.3v-35.764c43.445,26.306,44.951,56.392,45,58.136V460z"/>
			<path d="M325,85H150v50h175V85z M310,120H165v-20h145V120z"/>
			<path d="M237.5,185c-20.678,0-37.5,16.822-37.5,37.5s16.822,37.5,37.5,37.5s37.5-16.822,37.5-37.5S258.178,185,237.5,185z
				 M237.5,245c-12.406,0-22.5-10.093-22.5-22.5s10.094-22.5,22.5-22.5s22.5,10.093,22.5,22.5S249.906,245,237.5,245z"/>
			<path d="M302.5,200c-4.143,0-7.5,3.358-7.5,7.5v30c0,4.142,3.357,7.5,7.5,7.5s7.5-3.358,7.5-7.5v-30
				C310,203.358,306.643,200,302.5,200z"/>
			<path d="M172.5,200c-4.143,0-7.5,3.358-7.5,7.5v30c0,4.142,3.357,7.5,7.5,7.5s7.5-3.358,7.5-7.5v-30
				C180,203.358,176.643,200,172.5,200z"/>
		</g>
	</g>
</g>
</svg>